<svg width="36" height="36" viewBox="0 0 36 36" fill="none" xmlns="http://www.w3.org/2000/svg">
<path d="M18.0018 0C8.05796 0 0 6.93239 0 15.4887C0 21.0553 3.41433 25.9389 8.53947 28.6666C8.16374 30.1952 7.17519 34.2093 6.97821 35.0669C6.73381 36.131 7.3357 36.1191 7.72966 35.8332C8.03972 35.6069 12.6615 32.1844 14.6568 30.7114C15.7402 30.8861 16.8564 30.9774 17.9982 30.9774C27.9384 30.9774 36 24.045 36 15.4887C36 6.93239 27.942 0 18.0018 0Z" fill="#371D1E"/>
<path d="M5.44249 12.638H7.29556C7.29556 12.638 7.3065 18.1768 7.29556 19.4672C7.29556 20.4082 9.22159 20.4201 9.22159 19.4791L9.22889 12.7095C9.22889 12.7095 9.84901 12.7135 11.071 12.7135C12.2237 12.7135 12.2237 10.7401 11.071 10.7401C9.77241 10.7401 5.43519 10.7004 5.43519 10.7004C4.34815 10.7004 4.3518 12.634 5.43519 12.634" fill="#FAE100"/>
<mask id="mask0_267_24" style="mask-type:luminance" maskUnits="userSpaceOnUse" x="4" y="10" width="8" height="11">
<path d="M5.44249 12.638H7.29556C7.29556 12.638 7.3065 18.1768 7.29556 19.4672C7.29556 20.4082 9.22159 20.4201 9.22159 19.4791L9.22889 12.7095C9.22889 12.7095 9.84901 12.7135 11.071 12.7135C12.2237 12.7135 12.2237 10.7401 11.071 10.7401C9.77241 10.7401 5.43519 10.7004 5.43519 10.7004C4.34815 10.7004 4.3518 12.634 5.43519 12.634" fill="white"/>
</mask>
<g mask="url(#mask0_267_24)">
<path d="M12.2274 10.7046H4.35181V20.4242H12.2274V10.7046Z" fill="#FAE100"/>
</g>
<path d="M14.3102 12.9954L15.3426 16.5132H13.194L14.3102 12.9954ZM13.1539 11.3476C12.6979 12.4395 11.0528 17.6011 10.5056 18.9709C10.1116 19.9595 11.8152 20.7655 12.2091 19.7769L12.5812 18.3674H15.97C15.97 18.3674 15.8533 18.4269 16.3019 19.7173C16.6667 20.7655 18.4286 20.0389 18.0602 18.9907C17.5385 17.4939 15.7402 12.11 15.4119 11.3476C15.2623 10.9943 14.7188 10.7441 14.1935 10.7441C13.7594 10.7441 13.3326 10.9188 13.1539 11.3476Z" fill="#FAE100"/>
<mask id="mask1_267_24" style="mask-type:luminance" maskUnits="userSpaceOnUse" x="10" y="10" width="9" height="11">
<path d="M14.3102 12.9954L15.3426 16.5132H13.194L14.3102 12.9954ZM13.1539 11.3476C12.6979 12.4395 11.0528 17.6011 10.5056 18.9709C10.1116 19.9595 11.8152 20.7655 12.2091 19.7769L12.5812 18.3674H15.97C15.97 18.3674 15.8533 18.4269 16.3019 19.7173C16.6667 20.7655 18.4286 20.0389 18.0602 18.9907C17.5385 17.4939 15.7402 12.11 15.4119 11.3476C15.2623 10.9943 14.7188 10.7441 14.1935 10.7441C13.7594 10.7441 13.3326 10.9188 13.1539 11.3476Z" fill="white"/>
</mask>
<g mask="url(#mask1_267_24)">
<path d="M18.4322 10.7441H10.1116V20.7695H18.4322V10.7441Z" fill="#FAE100"/>
</g>
<path d="M18.7131 11.6732C18.7131 13.4282 18.7241 19.0821 18.7241 19.0821C18.7241 19.0821 18.5745 20.2057 19.4609 20.2057C20.3473 20.2057 22.3099 20.1938 23.1817 20.1938C24.0535 20.1938 24.0462 18.1768 23.178 18.1768C22.3099 18.1768 20.7194 18.1649 20.7194 18.1649C20.7194 18.1649 20.7267 12.9358 20.7231 11.6653C20.7231 11.0499 20.2197 10.7441 19.7199 10.7441C19.2202 10.7441 18.7168 11.0538 18.7168 11.6693" fill="#FAE100"/>
<mask id="mask2_267_24" style="mask-type:luminance" maskUnits="userSpaceOnUse" x="18" y="10" width="6" height="11">
<path d="M18.7131 11.6732C18.7131 13.4282 18.7241 19.0821 18.7241 19.0821C18.7241 19.0821 18.5745 20.2057 19.4609 20.2057C20.3473 20.2057 22.3099 20.1938 23.1817 20.1938C24.0535 20.1938 24.0462 18.1768 23.178 18.1768C22.3099 18.1768 20.7194 18.1649 20.7194 18.1649C20.7194 18.1649 20.7267 12.9358 20.7231 11.6653C20.7231 11.0499 20.2197 10.7441 19.7199 10.7441C19.2202 10.7441 18.7168 11.0538 18.7168 11.6693" fill="white"/>
</mask>
<g mask="url(#mask2_267_24)">
<path d="M24.0499 10.7441H18.5745V20.2017H24.0499V10.7441Z" fill="#FAE100"/>
</g>
<path d="M24.2833 11.3913C24.3015 12.1615 24.2614 19.1138 24.2614 19.6299C24.2614 20.4439 26.1656 20.4399 26.1619 19.6299C26.1619 18.685 26.1619 16.8943 26.1619 16.8943L26.72 16.4059L29.164 20.0349C29.6565 20.7456 31.2104 19.4632 30.718 18.7525L28.1244 15.0322C28.1244 15.0322 29.8863 12.9596 30.5794 12.2092C30.9843 11.7724 29.7294 10.3947 29.3245 10.8354C28.9306 11.2602 26.1729 14.2659 26.1729 14.2659C26.1729 14.2659 26.1984 12.3799 26.1729 11.3357C26.1619 10.9386 25.7169 10.748 25.2609 10.748C24.7721 10.748 24.2724 10.9664 24.2833 11.3913Z" fill="#FAE100"/>
<mask id="mask3_267_24" style="mask-type:luminance" maskUnits="userSpaceOnUse" x="24" y="10" width="7" height="11">
<path d="M24.2833 11.3913C24.3015 12.1615 24.2614 19.1138 24.2614 19.6299C24.2614 20.4439 26.1656 20.4399 26.1619 19.6299C26.1619 18.685 26.1619 16.8943 26.1619 16.8943L26.72 16.4059L29.164 20.0349C29.6565 20.7456 31.2104 19.4632 30.718 18.7525L28.1244 15.0322C28.1244 15.0322 29.8863 12.9596 30.5794 12.2092C30.9843 11.7724 29.7294 10.3947 29.3245 10.8354C28.9306 11.2602 26.1729 14.2659 26.1729 14.2659C26.1729 14.2659 26.1984 12.3799 26.1729 11.3357C26.1619 10.9386 25.7169 10.748 25.2609 10.748C24.7721 10.748 24.2724 10.9664 24.2833 11.3913Z" fill="white"/>
</mask>
<g mask="url(#mask3_267_24)">
<path d="M31.2141 10.3987H24.2614V20.7417H31.2141V10.3987Z" fill="#FAE100"/>
</g>
</svg>
