<svg width="32" height="32" viewBox="0 0 32 32" fill="none" xmlns="http://www.w3.org/2000/svg">
<g clip-path="url(#clip0_267_23)">
<path d="M32 16.3555C32 15.0398 31.8911 14.0801 31.6552 13.0842H16.3262V19.0218H25.324C25.1426 20.4973 24.1629 22.7198 21.9861 24.2129L21.9553 24.4116L26.8022 28.091L27.138 28.1239C30.2217 25.3327 31.9996 21.2262 31.9996 16.3551" fill="#4285F4"/>
<path d="M16.3266 32C20.7348 32 24.4352 30.5775 27.1384 28.1243L21.9864 24.2133C20.6078 25.1553 18.7574 25.8132 16.3266 25.8132C12.0093 25.8132 8.34493 23.022 7.03841 19.1643L6.84714 19.1804L1.8074 23.0027L1.74146 23.1821C4.42618 28.4089 9.94102 32 16.3266 32Z" fill="#34A853"/>
<path d="M7.03844 19.1646C6.69358 18.1692 6.49412 17.1023 6.49412 16.0001C6.49412 14.898 6.69358 13.8311 7.02 12.8357L7.01099 12.6237L1.90818 8.73999L1.74108 8.81786C0.634831 10.9865 0 13.4221 0 16.0001C0 18.5782 0.634831 21.0134 1.74149 23.1824L7.03844 19.1646Z" fill="#FBBC05"/>
<path d="M16.3266 6.18647C19.3922 6.18647 21.4601 7.48413 22.6393 8.56866L27.2469 4.1599C24.4172 1.58224 20.7344 0 16.3266 0C9.94102 0 4.42618 3.59114 1.74146 8.81791L7.02038 12.8357C8.34493 8.97806 12.0089 6.18687 16.3266 6.18687" fill="#EB4335"/>
</g>
<defs>
<clipPath id="clip0_267_23">
<rect width="32" height="32" fill="white"/>
</clipPath>
</defs>
</svg>
