<?xml version="1.0" encoding="utf-8"?>
<!-- Generator: Adobe Illustrator 28.2.0, SVG Export Plug-In . SVG Version: 6.00 Build 0)  -->
<svg version="1.1" id="레이어_1" xmlns="http://www.w3.org/2000/svg" xmlns:xlink="http://www.w3.org/1999/xlink" x="0px"
	 y="0px" viewBox="0 0 40 40" style="enable-background:new 0 0 40 40;" xml:space="preserve">
<style type="text/css">
	.st0{clip-path:url(#SVGID_00000047767013489362615590000007853694193349783689_);}
	.st1{fill:#4285F4;}
	.st2{fill:#34A853;}
	.st3{fill:#FBBC04;}
	.st4{fill:#E94235;}
</style>
<g>
	<g>
		<defs>
			<rect id="SVGID_1_" x="10" y="10" width="20" height="20"/>
		</defs>
		<clipPath id="SVGID_00000022548566361207532730000016704894757119671700_">
			<use xlink:href="#SVGID_1_"  style="overflow:visible;"/>
		</clipPath>
		<g style="clip-path:url(#SVGID_00000022548566361207532730000016704894757119671700_);">
			<path class="st1" d="M29.6,20.2c0-0.7-0.1-1.4-0.2-2H20V22h5.4c-0.2,1.2-0.9,2.3-2,3v2.5h3.2C28.5,25.8,29.6,23.3,29.6,20.2z"/>
			<path class="st2" d="M20,30c2.7,0,5-0.9,6.6-2.4l-3.2-2.5c-0.9,0.6-2,1-3.4,1c-2.6,0-4.8-1.8-5.6-4.1h-3.3v2.6
				C12.7,27.8,16.1,30,20,30z"/>
			<path class="st3" d="M14.4,21.9c-0.2-0.6-0.3-1.2-0.3-1.9s0.1-1.3,0.3-1.9v-2.6h-3.3C10.4,16.9,10,18.4,10,20s0.4,3.1,1.1,4.5
				L14.4,21.9z"/>
			<path class="st4" d="M20,14c1.5,0,2.8,0.5,3.8,1.5l2.9-2.9C25,11,22.7,10,20,10c-3.9,0-7.3,2.2-8.9,5.5l3.3,2.6
				C15.2,15.7,17.4,14,20,14z"/>
		</g>
	</g>
</g>
</svg>
